<?xml version="1.0" encoding="UTF-8" standalone="no"?>
<!DOCTYPE svg PUBLIC "-//W3C//DTD SVG 1.1//EN" "http://www.w3.org/Graphics/SVG/1.1/DTD/svg11.dtd">
<svg width="100%" height="100%" viewBox="0 0 16 16" version="1.1" xmlns="http://www.w3.org/2000/svg" xmlns:xlink="http://www.w3.org/1999/xlink" xml:space="preserve" xmlns:serif="http://www.serif.com/" style="fill-rule:evenodd;clip-rule:evenodd;stroke-linejoin:round;stroke-miterlimit:2;">
    <g id="crown.svg" transform="matrix(0.105462,0,0,0.105462,8,8)">
        <g transform="matrix(1,0,0,1,-64,-64)">
            <path d="M49.6,89.5L16.7,89.5C14.3,89.5 12.5,87.6 12.5,85.3L12.5,81.9C12.5,81.3 12.6,80.8 12.8,80.3L26.4,46.8C27.7,43.5 32.3,43.2 34,46.3L53.3,80C53.7,80.6 53.9,81.4 53.9,82.1L53.9,85.2C53.8,87.6 51.9,89.5 49.6,89.5Z" style="fill:url(#_Linear1);fill-rule:nonzero;"/>
            <path d="M79.5,89.5L112.4,89.5C114.7,89.5 116.6,87.6 116.6,85.3L116.6,81.9C116.6,81.3 116.5,80.8 116.3,80.3L102.7,46.8C101.4,43.5 96.8,43.2 95.1,46.3L75.8,80C75.4,80.6 75.2,81.4 75.2,82.1L75.2,85.2C75.2,87.6 77.2,89.5 79.5,89.5Z" style="fill:url(#_Linear2);fill-rule:nonzero;"/>
            <path d="M80.5,89.5L47.5,89.5C45.2,89.5 43.3,87.6 43.3,85.3L43.3,82C43.3,81.3 43.5,80.7 43.7,80.1L60.2,46.4C61.7,43.2 66.3,43.2 67.8,46.4L84.3,80.1C84.6,80.7 84.7,81.3 84.7,82L84.7,85.3C84.7,87.6 82.8,89.5 80.5,89.5Z" style="fill:url(#_Linear3);fill-rule:nonzero;"/>
            <circle cx="99.7" cy="42" r="4.1" style="fill:url(#_Linear4);"/>
            <circle cx="64" cy="42" r="4.1" style="fill:url(#_Linear5);"/>
            <circle cx="29.2" cy="42" r="4" style="fill:url(#_Linear6);"/>
            <path d="M99.7,40C100.8,40 101.8,40.9 101.8,42C101.8,42.7 101.5,43.3 100.9,43.7C100.4,44 100.1,44.5 100,45.1C99.9,45.7 100.1,46.3 100.5,46.7C100.7,47 100.9,47.2 101,47.4L114.7,81L114.8,81.3C114.9,81.5 115,81.8 115,81.9L115,85.3C115,86.6 113.6,88 112.4,88L16.7,88C15.5,88 14.1,86.5 14.1,85.3L14.1,81.9C14.1,81.8 14.2,81.6 14.3,81.4C14.4,81.3 14.4,81.1 14.5,81L28.3,47.5C28.4,47.3 28.5,47 28.7,46.8C29.1,46.4 29.3,45.8 29.2,45.2C29.1,44.6 28.8,44.1 28.2,43.8C27.6,43.4 27.2,42.8 27.2,42C27.2,40.9 28.1,40 29.2,40C30.3,40 31.2,40.9 31.2,42C31.2,42.6 30.9,43 30.7,43.3C30.3,43.8 30.2,44.4 30.3,45C30.4,45.6 30.8,46.1 31.3,46.4C31.7,46.6 32,46.9 32.2,47.3L46.4,72.1C46.8,72.7 47.4,73.1 48.1,73.1L48.2,73.1C48.9,73.1 49.6,72.7 49.9,72L61.9,47.4C62.1,47.1 62.2,46.9 62.5,46.6C63,46.2 63.2,45.7 63.2,45.1C63.2,44.5 63,44 62.6,43.6C62.2,43.2 61.9,42.7 61.9,42.1C61.9,41 62.8,40.1 63.9,40.1C65,40.1 65.9,41 65.9,42.1C65.9,42.7 65.7,43.2 65.2,43.6C64.8,44 64.5,44.6 64.5,45.1C64.5,45.6 64.8,46.2 65.2,46.6C65.4,46.8 65.6,47.1 65.8,47.4L78.5,73C78.8,73.7 79.5,74.1 80.2,74.1L80.3,74.1C81,74.1 81.7,73.7 82,73.1L96.8,47.3C97,47 97.3,46.7 97.6,46.5C98.1,46.2 98.5,45.7 98.6,45.1C98.7,44.5 98.5,43.9 98.2,43.5C98,43.2 97.7,42.8 97.7,42.2C97.7,40.9 98.6,40 99.7,40M99.7,38C97.5,38 95.6,39.8 95.6,42C95.6,43 96,43.9 96.6,44.6C96,45 95.4,45.5 95,46.2L80.3,72.1L67.8,46.4C67.5,45.8 67.1,45.4 66.7,45C67.5,44.3 68,43.2 68,42C68,39.8 66.2,38 63.9,38C61.7,38 59.9,39.8 59.9,42C59.9,43.2 60.4,44.3 61.2,45C60.8,45.4 60.4,45.8 60.1,46.4L48.1,71L34,46.2C33.6,45.5 33,44.9 32.3,44.6C32.9,43.9 33.2,43 33.2,42C33.2,39.8 31.4,38 29.2,38C27,38 25.2,39.8 25.2,42C25.2,43.5 26,44.8 27.2,45.5C26.9,45.8 26.6,46.3 26.4,46.7L12.5,80.2C12.3,80.7 12,81.3 12,81.8L12,85.2C12,87.5 14.3,89.9 16.6,89.9L112.4,89.9C114.7,89.9 117,87.5 117,85.2L117,81.8C117,81.2 116.7,80.7 116.5,80.2L102.8,46.7C102.6,46.2 102.3,45.8 101.9,45.4C103,44.7 103.8,43.4 103.8,42C103.8,39.8 102,38 99.7,38Z" style="fill:rgb(66,66,66);fill-opacity:0.2;fill-rule:nonzero;"/>
            <path d="M100.1,99.6L27.8,99.6C19,99.6 11.8,92.4 11.8,83.6L11.8,67.5L116.1,67.5L116.1,83.6C116.1,92.4 108.9,99.6 100.1,99.6Z" style="fill:rgb(253,216,53);fill-rule:nonzero;"/>
            <path d="M112.3,49.1L104.2,63.6C102.2,65.5 98.9,64.8 97.8,62.3L87.4,34.1C85.9,31.1 81.6,31.2 79.9,34.1L67.6,60.8C66.1,63.6 62,63.6 60.5,60.7L48.8,34.1C47.3,30.9 42.7,30.9 41.2,34.1L31.2,62.2C30.1,64.8 26.8,65.5 24.8,63.6L16.8,49.1C14.2,45.9 9,48 9.3,52.1L12.3,93.8C12.3,101 17.9,107 24.8,107L104,107C110.9,107 116.6,100.9 116.6,93.8L119.6,52.1C120.1,48 115,45.9 112.3,49.1Z" style="fill:url(#_Linear7);fill-rule:nonzero;"/>
            <circle cx="84.5" cy="28.3" r="7.1" style="fill:url(#_Linear8);"/>
            <circle cx="44.6" cy="28.3" r="7.1" style="fill:url(#_Linear9);"/>
            <circle cx="10.1" cy="45.8" r="6.1" style="fill:url(#_Linear10);"/>
            <circle cx="117.9" cy="45.8" r="6.1" style="fill:url(#_Linear11);"/>
            <path d="M84.5,24.2C86.8,24.2 88.6,26 88.6,28.3C88.6,29.9 87.7,31.3 86.3,32C84.9,32.7 84.3,34.3 84.8,35.7L95,63.3L95.1,63.5C96.2,66.1 98.7,67.7 101.5,67.7C103.3,67.7 104.9,67 106.3,65.8C106.5,65.6 106.7,65.3 106.9,65.1L114.8,50.9C115.7,49.9 115.9,48.5 115.3,47.3C115.1,46.8 114.9,46.3 114.9,45.8C114.9,44.1 116.3,42.7 118,42.7C119.7,42.7 121.1,44.1 121.1,45.8C121.1,47.1 120.2,48.3 119,48.7C117.7,49.1 116.9,50.3 116.9,51.6L116.9,51.8L113.9,93.4L113.9,93.6C113.9,96.4 112.8,99.1 110.8,101C109,102.8 106.7,103.8 104.3,103.8L24.8,103.8C22.4,103.8 20.1,102.8 18.3,101C16.3,99.1 15.2,96.3 15.2,93.6L15.2,93.4L12.2,51.8L12.2,51.6C12.2,50.1 11.1,48.9 9.6,48.7C8.1,48.7 7,47.4 7,45.8C7,44.1 8.4,42.7 10.1,42.7C11.8,42.7 13.2,44.1 13.2,45.8C13.2,46.2 13.1,46.6 13,47C12.4,48.4 12.9,49.9 14.2,50.7C14.3,50.7 14.3,50.8 14.4,50.8L22.2,65C22.3,65.3 22.6,65.5 22.8,65.7C24.1,66.9 25.8,67.6 27.6,67.6C30.4,67.6 33,65.9 34.1,63.3C34.1,63.3 34.1,63.2 34.2,63.2L44.1,35.5C44.6,34.1 44,32.6 42.8,31.9C41.5,31.2 40.7,29.8 40.7,28.4C40.7,26.1 42.5,24.3 44.8,24.3C47.1,24.3 48.9,26.1 48.9,28.4C48.9,29.7 48.3,30.9 47.2,31.7C46,32.6 45.6,34.2 46.3,35.5L57.8,62C57.8,62.1 57.8,62.1 57.9,62.2C59.1,64.5 61.5,66 64.1,66C66.7,66 69,64.6 70.3,62.3C70.3,62.2 70.4,62.2 70.4,62.1L82.6,35.6C83.5,34.3 83.2,32.6 82,31.6C81,30.8 80.4,29.6 80.4,28.4C80.4,26.1 82.2,24.2 84.5,24.2M84.5,21.2C80.6,21.2 77.4,24.4 77.4,28.3C77.4,30.5 78.5,32.5 80.1,33.8C80,34 79.9,34 79.9,34.1L67.6,60.8C66.8,62.2 65.5,62.9 64.1,62.9C62.7,62.9 61.3,62.2 60.5,60.7L48.8,34.1L48.8,34C50.6,32.7 51.7,30.6 51.7,28.3C51.7,24.4 48.5,21.2 44.6,21.2C40.7,21.2 37.5,24.4 37.5,28.3C37.5,30.9 38.9,33.2 41.1,34.5L31.2,62.2C30.5,63.8 29,64.7 27.5,64.7C26.5,64.7 25.6,64.4 24.8,63.6L16.8,49.1C16.5,48.7 16.1,48.4 15.7,48.2C16,47.5 16.2,46.7 16.2,45.9C16.2,42.5 13.5,39.8 10.1,39.8C6.8,39.8 4,42.5 4,45.9C4,49 6.3,51.5 9.3,51.9L9.3,52.1L12.3,93.8C12.3,101 17.9,107 24.9,107L104.2,107C111.1,107 116.8,100.9 116.8,93.8L119.8,52.1L119.8,51.7C122.2,50.9 124,48.6 124,45.9C124,42.5 121.3,39.8 117.9,39.8C114.5,39.8 111.8,42.5 111.8,45.9C111.8,47 112.1,48 112.6,48.8C112.5,48.9 112.4,49 112.3,49.1L104.2,63.6C103.4,64.3 102.4,64.7 101.5,64.7C100,64.7 98.5,63.8 97.8,62.3L87.6,34.7C89.9,33.5 91.6,31.1 91.6,28.3C91.6,24.4 88.4,21.2 84.5,21.2Z" style="fill:rgb(66,66,66);fill-opacity:0.2;fill-rule:nonzero;"/>
            <circle cx="64.5" cy="81.4" r="11.2" style="fill:url(#_Linear12);"/>
            <circle cx="37.5" cy="81.4" r="6.4" style="fill:url(#_Linear13);"/>
            <circle cx="91.6" cy="81.4" r="6.4" style="fill:url(#_Linear14);"/>
            <ellipse cx="12.5" cy="81.4" rx="5.6" ry="7.4" style="fill:url(#_Linear15);"/>
            <ellipse cx="116.6" cy="81.4" rx="5.6" ry="7.4" style="fill:url(#_Linear16);"/>
            <g>
                <path d="M12.5,76C14.5,76 16.1,78.5 16.1,81.4C16.1,84.3 14.4,86.8 12.5,86.8C10.6,86.8 8.9,84.3 8.9,81.4C8.9,78.5 10.5,76 12.5,76M12.5,74C9.4,74 6.9,77.3 6.9,81.4C6.9,85.5 9.4,88.8 12.5,88.8C15.6,88.8 18.1,85.5 18.1,81.4C18.1,77.3 15.6,74 12.5,74Z" style="fill:rgb(66,66,66);fill-opacity:0.2;fill-rule:nonzero;"/>
                <path d="M116.6,76C118.6,76 120.2,78.5 120.2,81.4C120.2,84.3 118.5,86.8 116.6,86.8C114.7,86.8 113,84.3 113,81.4C113,78.5 114.6,76 116.6,76M116.6,74C113.5,74 111,77.3 111,81.4C111,85.5 113.5,88.8 116.6,88.8C119.7,88.8 122.2,85.5 122.2,81.4C122.2,77.3 119.7,74 116.6,74Z" style="fill:rgb(66,66,66);fill-opacity:0.2;fill-rule:nonzero;"/>
                <path d="M64.5,72.2C69.6,72.2 73.7,76.3 73.7,81.4C73.7,86.5 69.6,90.6 64.5,90.6C59.4,90.6 55.3,86.5 55.3,81.4C55.3,76.3 59.5,72.2 64.5,72.2M64.5,70.2C58.3,70.2 53.3,75.2 53.3,81.4C53.3,87.6 58.3,92.6 64.5,92.6C70.7,92.6 75.7,87.6 75.7,81.4C75.7,75.2 70.7,70.2 64.5,70.2Z" style="fill:rgb(66,66,66);fill-opacity:0.2;fill-rule:nonzero;"/>
                <path d="M37.5,77C39.9,77 41.9,79 41.9,81.4C41.9,83.8 39.9,85.8 37.5,85.8C35.1,85.8 33.1,83.8 33.1,81.4C33.1,79 35,77 37.5,77M37.5,75C34,75 31.1,77.8 31.1,81.4C31.1,85 33.9,87.8 37.5,87.8C41.1,87.8 43.9,85 43.9,81.4C43.9,77.8 41,75 37.5,75Z" style="fill:rgb(66,66,66);fill-opacity:0.2;fill-rule:nonzero;"/>
                <path d="M91.6,77C94,77 96,79 96,81.4C96,83.8 94,85.8 91.6,85.8C89.2,85.8 87.2,83.8 87.2,81.4C87.2,79 89.2,77 91.6,77M91.6,75C88.1,75 85.2,77.8 85.2,81.4C85.2,85 88,87.8 91.6,87.8C95.2,87.8 98,85 98,81.4C98,77.8 95.1,75 91.6,75Z" style="fill:rgb(66,66,66);fill-opacity:0.2;fill-rule:nonzero;"/>
            </g>
        </g>
    </g>
    <defs>
        <linearGradient id="_Linear1" x1="0" y1="0" x2="1" y2="0" gradientUnits="userSpaceOnUse" gradientTransform="matrix(4.8196e-15,78.7101,-78.7101,4.8196e-15,33.2,12.4999)"><stop offset="0" style="stop-color:rgb(253,216,53);stop-opacity:1"/><stop offset="0.06" style="stop-color:rgb(253,216,53);stop-opacity:1"/><stop offset="0.76" style="stop-color:rgb(249,168,37);stop-opacity:1"/><stop offset="1" style="stop-color:rgb(249,168,37);stop-opacity:1"/></linearGradient>
        <linearGradient id="_Linear2" x1="0" y1="0" x2="1" y2="0" gradientUnits="userSpaceOnUse" gradientTransform="matrix(4.8196e-15,78.7101,-78.7101,4.8196e-15,95.9,12.4999)"><stop offset="0" style="stop-color:rgb(253,216,53);stop-opacity:1"/><stop offset="0.06" style="stop-color:rgb(253,216,53);stop-opacity:1"/><stop offset="0.76" style="stop-color:rgb(249,168,37);stop-opacity:1"/><stop offset="1" style="stop-color:rgb(249,168,37);stop-opacity:1"/></linearGradient>
        <linearGradient id="_Linear3" x1="0" y1="0" x2="1" y2="0" gradientUnits="userSpaceOnUse" gradientTransform="matrix(4.8196e-15,78.7101,-78.7101,4.8196e-15,64,12.4999)"><stop offset="0" style="stop-color:rgb(253,216,53);stop-opacity:1"/><stop offset="0.06" style="stop-color:rgb(253,216,53);stop-opacity:1"/><stop offset="0.76" style="stop-color:rgb(249,168,37);stop-opacity:1"/><stop offset="1" style="stop-color:rgb(249,168,37);stop-opacity:1"/></linearGradient>
        <linearGradient id="_Linear4" x1="0" y1="0" x2="1" y2="0" gradientUnits="userSpaceOnUse" gradientTransform="matrix(4.8196e-15,78.7101,-78.7101,4.8196e-15,99.7,12.4999)"><stop offset="0" style="stop-color:rgb(253,216,53);stop-opacity:1"/><stop offset="0.06" style="stop-color:rgb(253,216,53);stop-opacity:1"/><stop offset="0.76" style="stop-color:rgb(249,168,37);stop-opacity:1"/><stop offset="1" style="stop-color:rgb(249,168,37);stop-opacity:1"/></linearGradient>
        <linearGradient id="_Linear5" x1="0" y1="0" x2="1" y2="0" gradientUnits="userSpaceOnUse" gradientTransform="matrix(4.8196e-15,78.7101,-78.7101,4.8196e-15,64,12.4999)"><stop offset="0" style="stop-color:rgb(253,216,53);stop-opacity:1"/><stop offset="0.06" style="stop-color:rgb(253,216,53);stop-opacity:1"/><stop offset="0.76" style="stop-color:rgb(249,168,37);stop-opacity:1"/><stop offset="1" style="stop-color:rgb(249,168,37);stop-opacity:1"/></linearGradient>
        <linearGradient id="_Linear6" x1="0" y1="0" x2="1" y2="0" gradientUnits="userSpaceOnUse" gradientTransform="matrix(4.8196e-15,78.7101,-78.7101,4.8196e-15,29.2,12.4999)"><stop offset="0" style="stop-color:rgb(253,216,53);stop-opacity:1"/><stop offset="0.06" style="stop-color:rgb(253,216,53);stop-opacity:1"/><stop offset="0.76" style="stop-color:rgb(249,168,37);stop-opacity:1"/><stop offset="1" style="stop-color:rgb(249,168,37);stop-opacity:1"/></linearGradient>
        <linearGradient id="_Linear7" x1="0" y1="0" x2="1" y2="0" gradientUnits="userSpaceOnUse" gradientTransform="matrix(6.71985e-15,109.743,-109.743,6.71985e-15,64.4609,-2.8235)"><stop offset="0" style="stop-color:rgb(255,235,59);stop-opacity:1"/><stop offset="0.25" style="stop-color:rgb(255,235,59);stop-opacity:1"/><stop offset="0.44" style="stop-color:rgb(255,230,57);stop-opacity:1"/><stop offset="0.67" style="stop-color:rgb(253,215,52);stop-opacity:1"/><stop offset="0.91" style="stop-color:rgb(251,192,45);stop-opacity:1"/><stop offset="1" style="stop-color:rgb(251,192,45);stop-opacity:1"/></linearGradient>
        <linearGradient id="_Linear8" x1="0" y1="0" x2="1" y2="0" gradientUnits="userSpaceOnUse" gradientTransform="matrix(5.27762e-15,86.19,-86.19,5.27762e-15,84.5,20.2499)"><stop offset="0" style="stop-color:rgb(255,235,59);stop-opacity:1"/><stop offset="1" style="stop-color:rgb(251,192,45);stop-opacity:1"/></linearGradient>
        <linearGradient id="_Linear9" x1="0" y1="0" x2="1" y2="0" gradientUnits="userSpaceOnUse" gradientTransform="matrix(5.27762e-15,86.19,-86.19,5.27762e-15,44.6,20.2499)"><stop offset="0" style="stop-color:rgb(255,235,59);stop-opacity:1"/><stop offset="1" style="stop-color:rgb(251,192,45);stop-opacity:1"/></linearGradient>
        <linearGradient id="_Linear10" x1="0" y1="0" x2="1" y2="0" gradientUnits="userSpaceOnUse" gradientTransform="matrix(5.27762e-15,86.19,-86.19,5.27762e-15,10.1,20.2499)"><stop offset="0" style="stop-color:rgb(255,235,59);stop-opacity:1"/><stop offset="1" style="stop-color:rgb(251,192,45);stop-opacity:1"/></linearGradient>
        <linearGradient id="_Linear11" x1="0" y1="0" x2="1" y2="0" gradientUnits="userSpaceOnUse" gradientTransform="matrix(5.27762e-15,86.19,-86.19,5.27762e-15,117.9,20.2499)"><stop offset="0" style="stop-color:rgb(255,235,59);stop-opacity:1"/><stop offset="1" style="stop-color:rgb(251,192,45);stop-opacity:1"/></linearGradient>
        <linearGradient id="_Linear12" x1="0" y1="0" x2="1" y2="0" gradientUnits="userSpaceOnUse" gradientTransform="matrix(15.769,15.768,-15.768,15.769,56.6105,73.511)"><stop offset="0" style="stop-color:rgb(41,182,246);stop-opacity:1"/><stop offset="1" style="stop-color:rgb(3,155,229);stop-opacity:1"/></linearGradient>
        <linearGradient id="_Linear13" x1="0" y1="0" x2="1" y2="0" gradientUnits="userSpaceOnUse" gradientTransform="matrix(9.0086,9.0085,-9.0085,9.0086,32.9507,76.8508)"><stop offset="0" style="stop-color:rgb(240,98,146);stop-opacity:1"/><stop offset="1" style="stop-color:rgb(233,30,99);stop-opacity:1"/></linearGradient>
        <linearGradient id="_Linear14" x1="0" y1="0" x2="1" y2="0" gradientUnits="userSpaceOnUse" gradientTransform="matrix(9.0086,9.0085,-9.0085,9.0086,87.0745,76.8745)"><stop offset="0" style="stop-color:rgb(240,98,146);stop-opacity:1"/><stop offset="1" style="stop-color:rgb(233,30,99);stop-opacity:1"/></linearGradient>
        <linearGradient id="_Linear15" x1="0" y1="0" x2="1" y2="0" gradientUnits="userSpaceOnUse" gradientTransform="matrix(9.269,9.2684,-9.2684,9.269,7.8455,76.7458)"><stop offset="0" style="stop-color:rgb(41,182,246);stop-opacity:1"/><stop offset="1" style="stop-color:rgb(3,155,229);stop-opacity:1"/></linearGradient>
        <linearGradient id="_Linear16" x1="0" y1="0" x2="1" y2="0" gradientUnits="userSpaceOnUse" gradientTransform="matrix(9.2696,9.2674,-9.2674,9.2696,111.93,76.7313)"><stop offset="0" style="stop-color:rgb(41,182,246);stop-opacity:1"/><stop offset="1" style="stop-color:rgb(3,155,229);stop-opacity:1"/></linearGradient>
    </defs>
</svg>
